<svg width="24" height="24" viewBox="0 0 24 24" fill="none" xmlns="http://www.w3.org/2000/svg">
<path d="M4 5C4 4.44772 4.44772 4 5 4H19C19.5523 4 20 4.44772 20 5V19C20 19.5523 19.5523 20 19 20H5C4.44772 20 4 19.5523 4 19V5Z" stroke="#FFFFFF" stroke-width="1.8"/>
<path d="M8 3V5" stroke="#FFFFFF" stroke-width="1.8" stroke-linecap="round"/>
<path d="M7 3H17C18.1046 3 19 3.89543 19 5V21L12 17L5 21V5C5 3.89543 5.89543 3 7 3Z" stroke="#FFFFFF" stroke-width="1.8" stroke-linecap="round" stroke-linejoin="round"/>
<path d="M9 8H15" stroke="#FFFFFF" stroke-width="1.8" stroke-linecap="round"/>
<path d="M9 11.5H15" stroke="#FFFFFF" stroke-width="1.8" stroke-linecap="round"/>
<path d="M9 15H12" stroke="#FFFFFF" stroke-width="1.8" stroke-linecap="round"/>
</svg>
